<mxfile host="app.diagrams.net" modified="2021-12-14T12:29:35.903Z" agent="5.0 (Windows NT 10.0; Win64; x64) AppleWebKit/537.36 (KHTML, like Gecko) Chrome/96.0.4664.93 Safari/537.36" etag="t3jzBHbwoYtFdRrnlF0n" version="15.9.6" type="github">
  <diagram id="N8Edi52NSmTYdyOakT1O" name="Page-1">
    <mxGraphModel dx="1422" dy="754" grid="1" gridSize="10" guides="1" tooltips="1" connect="1" arrows="1" fold="1" page="1" pageScale="1" pageWidth="827" pageHeight="1169" math="0" shadow="0">
      <root>
        <mxCell id="0" />
        <mxCell id="1" parent="0" />
        <mxCell id="S61cnKSq_L1cPFYxwROf-4" value="" style="swimlane;startSize=0;" vertex="1" parent="1">
          <mxGeometry x="40" y="40" width="700" height="970" as="geometry" />
        </mxCell>
        <mxCell id="S61cnKSq_L1cPFYxwROf-8" value="user" style="rounded=0;whiteSpace=wrap;html=1;" vertex="1" parent="S61cnKSq_L1cPFYxwROf-4">
          <mxGeometry x="354" y="80" width="120" height="60" as="geometry" />
        </mxCell>
        <mxCell id="S61cnKSq_L1cPFYxwROf-9" value="gUdpRequire&lt;br&gt;headArray&lt;br&gt;bodyArray&lt;br&gt;gudpRequire&lt;br&gt;getTotalArray&lt;br&gt;getHeadArray&lt;br&gt;getBodyArray" style="rounded=0;whiteSpace=wrap;html=1;" vertex="1" parent="S61cnKSq_L1cPFYxwROf-4">
          <mxGeometry x="20" y="510" width="120" height="140" as="geometry" />
        </mxCell>
        <mxCell id="S61cnKSq_L1cPFYxwROf-10" value="gevent" style="rounded=0;whiteSpace=wrap;html=1;" vertex="1" parent="S61cnKSq_L1cPFYxwROf-4">
          <mxGeometry x="510" y="90" width="120" height="60" as="geometry" />
        </mxCell>
        <mxCell id="ttSso2FikDegnhqfddx3-4" value="gUdp&lt;br&gt;headEvent&lt;br&gt;userId string&lt;br&gt;timeStamp number&lt;br&gt;requireId number&lt;br&gt;blockCount number&lt;br&gt;sequenceId number&lt;br&gt;body string" style="rounded=0;whiteSpace=wrap;html=1;" parent="S61cnKSq_L1cPFYxwROf-4" vertex="1">
          <mxGeometry x="130" y="60" width="120" height="235" as="geometry" />
        </mxCell>
        <mxCell id="S61cnKSq_L1cPFYxwROf-23" value="" style="rhombus;whiteSpace=wrap;html=1;" vertex="1" parent="S61cnKSq_L1cPFYxwROf-4">
          <mxGeometry x="380" y="320" width="140" height="150" as="geometry" />
        </mxCell>
        <mxCell id="S61cnKSq_L1cPFYxwROf-25" value="&lt;span&gt;gUdpRequire&lt;br&gt;cmdCode number&lt;/span&gt;" style="rounded=0;whiteSpace=wrap;html=1;" vertex="1" parent="S61cnKSq_L1cPFYxwROf-4">
          <mxGeometry x="40" y="370" width="120" height="60" as="geometry" />
        </mxCell>
        <mxCell id="S61cnKSq_L1cPFYxwROf-26" value="" style="endArrow=classic;html=1;rounded=0;entryX=0.5;entryY=0;entryDx=0;entryDy=0;exitX=0.5;exitY=1;exitDx=0;exitDy=0;" edge="1" parent="S61cnKSq_L1cPFYxwROf-4" source="ttSso2FikDegnhqfddx3-4" target="S61cnKSq_L1cPFYxwROf-25">
          <mxGeometry width="50" height="50" relative="1" as="geometry">
            <mxPoint x="670" y="470" as="sourcePoint" />
            <mxPoint x="720" y="420" as="targetPoint" />
          </mxGeometry>
        </mxCell>
        <mxCell id="S61cnKSq_L1cPFYxwROf-27" value="&lt;span&gt;gUdpResponse&lt;br&gt;returnCode number&lt;/span&gt;" style="rounded=0;whiteSpace=wrap;html=1;" vertex="1" parent="S61cnKSq_L1cPFYxwROf-4">
          <mxGeometry x="210" y="365" width="120" height="60" as="geometry" />
        </mxCell>
        <mxCell id="S61cnKSq_L1cPFYxwROf-28" value="" style="endArrow=classic;html=1;rounded=0;entryX=0.5;entryY=0;entryDx=0;entryDy=0;exitX=0.5;exitY=1;exitDx=0;exitDy=0;" edge="1" parent="S61cnKSq_L1cPFYxwROf-4" source="ttSso2FikDegnhqfddx3-4" target="S61cnKSq_L1cPFYxwROf-27">
          <mxGeometry width="50" height="50" relative="1" as="geometry">
            <mxPoint x="100" y="310" as="sourcePoint" />
            <mxPoint x="720" y="420" as="targetPoint" />
          </mxGeometry>
        </mxCell>
      </root>
    </mxGraphModel>
  </diagram>
</mxfile>
